<?xml version="1.0" encoding="UTF-8" standalone="no"?><!DOCTYPE svg PUBLIC "-//W3C//DTD SVG 1.1//EN" "http://www.w3.org/Graphics/SVG/1.1/DTD/svg11.dtd"><svg width="100%" height="100%" viewBox="0 0 575 160" version="1.1" xmlns="http://www.w3.org/2000/svg" xmlns:xlink="http://www.w3.org/1999/xlink" xml:space="preserve" xmlns:serif="http://www.serif.com/" style="fill-rule:evenodd;clip-rule:evenodd;stroke-linejoin:round;stroke-miterlimit:2;"><rect id="Artboard1" x="0" y="0" width="574.392" height="159.969" style="fill:none;"/><path d="M146.985,5.563l-0,105.803l60.286,-0l-0,11.132l-71.425,-0l-0,-116.935l11.139,-0Z" style="fill:#231f20;fill-rule:nonzero;"/><path d="M461.026,122.498l-0,-116.935l59.369,77.427l-6.909,9.298l-41.324,-53.949l0.002,84.159l-11.138,-0Zm103.207,-0l-0.002,-116.938l-50.879,68.235l7.043,9.195l32.7,-44.013l-0,83.521l11.138,-0Z" style="fill:#231f20;"/><path d="M60.369,31.836l-41.93,90.703c-3.378,0.001 -8.102,0.001 -12.152,0.001l54.111,-116.977l54.187,116.976l-12.123,-0l-42.093,-90.703Z" style="fill:#ec008c;fill-rule:nonzero;"/><path d="M39.327,122.532l42.213,0.022l0.004,-8.854l-42.212,-0.022l-0.005,8.854Z" style="fill:#ec008c;"/><path d="M292.505,105.432c-7.995,4.396 -17.367,6.925 -27.385,6.925c-29.307,-0 -53.074,-21.641 -53.074,-48.327c-0,-26.686 23.767,-48.327 53.074,-48.327c11.006,-0 21.232,3.053 29.71,8.278l6.672,-8.131c-10.341,-6.489 -22.875,-10.289 -36.382,-10.289c-35.457,0 -64.211,26.183 -64.211,58.469c-0,32.285 28.754,58.468 64.211,58.468c13.364,-0 25.775,-3.72 36.054,-10.083l-8.669,-6.983Z" style="fill:#231f20;"/><path d="M413.642,40.892c4.124,6.873 6.469,14.756 6.469,23.138c0,26.686 -23.766,48.327 -53.074,48.327c-29.307,-0 -53.073,-21.641 -53.073,-48.327c-0,-26.686 23.766,-48.327 53.073,-48.327c7.844,-0 15.292,1.55 21.992,4.332l4.648,-9.218c-8.116,-3.375 -17.137,-5.256 -26.64,-5.256c-35.456,0 -64.209,26.183 -64.209,58.469c-0,32.285 28.753,58.468 64.209,58.468c35.457,-0 64.211,-26.183 64.211,-58.468c-0,-11.549 -3.679,-22.317 -10.029,-31.386l-7.577,8.248Z" style="fill:#231f20;"/><g><path d="M6.368,133.202l0,-1.827l15.618,0l0,1.827l-6.773,-0l-0,19.602l-2.042,-0l-0,-19.602l-6.803,-0Z" style="fill:#ec008c;fill-rule:nonzero;"/><path d="M26.373,152.804l-0,-21.429l12.512,0l-0,1.827l-10.47,-0l0,7.91l9.808,-0l0,1.826l-9.808,0l0,8.04l10.671,-0l0,1.826l-12.713,-0Z" style="fill:#ec008c;fill-rule:nonzero;"/><path d="M52.245,153.092c-1.802,-0 -3.403,-0.451 -4.803,-1.352c-1.4,-0.902 -2.498,-2.174 -3.293,-3.819c-0.796,-1.644 -1.194,-3.583 -1.194,-5.817c-0,-2.244 0.398,-4.19 1.194,-5.839c0.795,-1.649 1.893,-2.924 3.293,-3.825c1.4,-0.902 3.001,-1.352 4.803,-1.352c1.525,-0 2.884,0.309 4.078,0.927c1.193,0.619 2.171,1.458 2.934,2.517c0.762,1.06 1.258,2.251 1.488,3.574l-2.042,-0c-0.202,-0.978 -0.599,-1.853 -1.194,-2.625c-0.594,-0.772 -1.34,-1.378 -2.236,-1.819c-0.897,-0.441 -1.906,-0.662 -3.028,-0.662c-1.342,0 -2.567,0.35 -3.674,1.05c-1.107,0.7 -1.989,1.726 -2.646,3.078c-0.657,1.352 -0.985,3.011 -0.985,4.976c-0,1.966 0.33,3.624 0.992,4.976c0.661,1.352 1.544,2.373 2.646,3.063c1.103,0.691 2.325,1.036 3.667,1.036c1.122,-0 2.131,-0.223 3.028,-0.669c0.896,-0.446 1.642,-1.055 2.236,-1.826c0.595,-0.772 0.992,-1.642 1.194,-2.611l2.042,0c-0.22,1.304 -0.712,2.486 -1.474,3.545c-0.762,1.06 -1.74,1.904 -2.934,2.532c-1.194,0.628 -2.557,0.942 -4.092,0.942Z" style="fill:#ec008c;fill-rule:nonzero;"/><path d="M65.347,152.804l0,-21.429l2.042,0l0,9.564l12.052,0l0,-9.564l2.042,0l0,21.429l-2.042,-0l0,-10.038l-12.052,-0l0,10.038l-2.042,-0Z" style="fill:#ec008c;fill-rule:nonzero;"/><path d="M87.15,152.804l-0,-21.429l2.358,0l9.765,14.555c0.355,0.536 0.767,1.186 1.237,1.948c0.47,0.762 0.949,1.594 1.438,2.495c-0.057,-0.939 -0.095,-1.821 -0.115,-2.646c-0.019,-0.824 -0.028,-1.548 -0.028,-2.171l-0,-14.181l2.042,0l-0,21.429l-2.373,-0l-9.118,-13.548c-0.499,-0.738 -0.992,-1.51 -1.481,-2.315c-0.489,-0.805 -1.103,-1.826 -1.841,-3.063c0.048,1.15 0.088,2.188 0.122,3.113c0.034,0.926 0.05,1.676 0.05,2.251l0,13.562l-2.056,-0Z" style="fill:#ec008c;fill-rule:nonzero;"/><path d="M117.869,153.092c-1.812,-0 -3.418,-0.451 -4.818,-1.352c-1.4,-0.902 -2.498,-2.174 -3.293,-3.819c-0.796,-1.644 -1.194,-3.583 -1.194,-5.817c-0,-2.244 0.398,-4.19 1.194,-5.839c0.795,-1.649 1.893,-2.924 3.293,-3.825c1.4,-0.902 3.006,-1.352 4.818,-1.352c1.802,-0 3.404,0.45 4.803,1.352c1.4,0.901 2.496,2.176 3.287,3.825c0.791,1.649 1.186,3.595 1.186,5.839c0,2.234 -0.395,4.173 -1.186,5.817c-0.791,1.645 -1.887,2.917 -3.287,3.819c-1.399,0.901 -3.001,1.352 -4.803,1.352Zm-0,-1.913c1.39,-0 2.634,-0.36 3.732,-1.079c1.098,-0.719 1.965,-1.757 2.603,-3.113c0.638,-1.357 0.956,-2.985 0.956,-4.883c0,-1.908 -0.318,-3.543 -0.956,-4.904c-0.638,-1.362 -1.505,-2.402 -2.603,-3.121c-1.098,-0.719 -2.342,-1.079 -3.732,-1.079c-1.4,0 -2.651,0.36 -3.754,1.079c-1.102,0.719 -1.972,1.759 -2.61,3.121c-0.638,1.361 -0.956,2.996 -0.956,4.904c-0,1.889 0.318,3.512 0.956,4.868c0.638,1.357 1.508,2.397 2.61,3.121c1.103,0.724 2.354,1.086 3.754,1.086Z" style="fill:#ec008c;fill-rule:nonzero;"/><path d="M131.862,152.804l0,-21.429l2.057,0l-0,19.603l10.182,-0l0,1.826l-12.239,-0Z" style="fill:#ec008c;fill-rule:nonzero;"/><path d="M156.009,153.092c-1.812,-0 -3.418,-0.451 -4.818,-1.352c-1.4,-0.902 -2.497,-2.174 -3.293,-3.819c-0.796,-1.644 -1.194,-3.583 -1.194,-5.817c0,-2.244 0.398,-4.19 1.194,-5.839c0.796,-1.649 1.893,-2.924 3.293,-3.825c1.4,-0.902 3.006,-1.352 4.818,-1.352c1.803,-0 3.404,0.45 4.804,1.352c1.399,0.901 2.495,2.176 3.286,3.825c0.791,1.649 1.186,3.595 1.186,5.839c0,2.234 -0.395,4.173 -1.186,5.817c-0.791,1.645 -1.887,2.917 -3.286,3.819c-1.4,0.901 -3.001,1.352 -4.804,1.352Zm0,-1.913c1.39,-0 2.634,-0.36 3.732,-1.079c1.098,-0.719 1.966,-1.757 2.603,-3.113c0.638,-1.357 0.957,-2.985 0.957,-4.883c-0,-1.908 -0.319,-3.543 -0.957,-4.904c-0.637,-1.362 -1.505,-2.402 -2.603,-3.121c-1.098,-0.719 -2.342,-1.079 -3.732,-1.079c-1.4,0 -2.651,0.36 -3.754,1.079c-1.102,0.719 -1.972,1.759 -2.61,3.121c-0.637,1.361 -0.956,2.996 -0.956,4.904c-0,1.889 0.319,3.512 0.956,4.868c0.638,1.357 1.508,2.397 2.61,3.121c1.103,0.724 2.354,1.086 3.754,1.086Z" style="fill:#ec008c;fill-rule:nonzero;"/><path d="M178.43,153.092c-1.879,-0 -3.521,-0.451 -4.926,-1.352c-1.404,-0.902 -2.497,-2.174 -3.279,-3.819c-0.781,-1.644 -1.172,-3.583 -1.172,-5.817c0,-2.244 0.393,-4.19 1.179,-5.839c0.787,-1.649 1.873,-2.924 3.258,-3.825c1.385,-0.902 2.984,-1.352 4.796,-1.352c1.563,-0 2.948,0.321 4.157,0.963c1.208,0.643 2.193,1.494 2.955,2.553c0.762,1.059 1.258,2.222 1.488,3.488l-2.099,-0c-0.25,-0.94 -0.662,-1.796 -1.237,-2.568c-0.575,-0.771 -1.304,-1.385 -2.186,-1.84c-0.882,-0.456 -1.903,-0.684 -3.063,-0.684c-1.381,0 -2.62,0.36 -3.718,1.079c-1.098,0.719 -1.963,1.757 -2.596,3.114c-0.633,1.356 -0.949,2.993 -0.949,4.911c-0,1.889 0.316,3.512 0.949,4.868c0.633,1.357 1.505,2.397 2.618,3.121c1.112,0.724 2.387,1.086 3.825,1.086c1.304,-0 2.45,-0.283 3.437,-0.849c0.988,-0.565 1.757,-1.371 2.309,-2.416c0.551,-1.045 0.841,-2.277 0.87,-3.696l-6.185,0l0,-1.812l8.184,0l-0,1.769c-0,1.812 -0.367,3.384 -1.101,4.717c-0.733,1.333 -1.747,2.366 -3.041,3.099c-1.295,0.734 -2.786,1.101 -4.473,1.101Z" style="fill:#ec008c;fill-rule:nonzero;"/><path d="M197.198,152.804l0,-9.233l-7.967,-12.196l2.373,0l4.559,7.004c0.383,0.595 0.743,1.172 1.078,1.733c0.336,0.561 0.667,1.182 0.993,1.863c0.335,-0.691 0.671,-1.319 1.006,-1.884c0.336,-0.566 0.691,-1.137 1.065,-1.712l4.544,-7.004l2.359,0l-7.968,12.196l0,9.233l-2.042,-0Z" style="fill:#ec008c;fill-rule:nonzero;"/><path d="M227.5,153.092c-1.812,-0 -3.418,-0.451 -4.818,-1.352c-1.399,-0.902 -2.497,-2.174 -3.293,-3.819c-0.796,-1.644 -1.194,-3.583 -1.194,-5.817c0,-2.244 0.398,-4.19 1.194,-5.839c0.796,-1.649 1.894,-2.924 3.293,-3.825c1.4,-0.902 3.006,-1.352 4.818,-1.352c1.803,-0 3.404,0.45 4.804,1.352c1.399,0.901 2.495,2.176 3.286,3.825c0.791,1.649 1.186,3.595 1.186,5.839c0,2.234 -0.395,4.173 -1.186,5.817c-0.791,1.645 -1.887,2.917 -3.286,3.819c-1.4,0.901 -3.001,1.352 -4.804,1.352Zm0,-1.913c1.39,-0 2.634,-0.36 3.732,-1.079c1.098,-0.719 1.966,-1.757 2.603,-3.113c0.638,-1.357 0.957,-2.985 0.957,-4.883c-0,-1.908 -0.319,-3.543 -0.957,-4.904c-0.637,-1.362 -1.505,-2.402 -2.603,-3.121c-1.098,-0.719 -2.342,-1.079 -3.732,-1.079c-1.4,0 -2.651,0.36 -3.753,1.079c-1.103,0.719 -1.973,1.759 -2.611,3.121c-0.637,1.361 -0.956,2.996 -0.956,4.904c-0,1.889 0.319,3.512 0.956,4.868c0.638,1.357 1.508,2.397 2.611,3.121c1.102,0.724 2.353,1.086 3.753,1.086Z" style="fill:#ec008c;fill-rule:nonzero;"/><path d="M241.494,152.804l-0,-21.429l12.468,0l0,1.827l-10.426,-0l-0,8.14l9.434,-0l0,1.826l-9.434,0l-0,9.636l-2.042,-0Z" style="fill:#ec008c;fill-rule:nonzero;"/><path d="M275.449,153.092c-1.803,-0 -3.404,-0.451 -4.804,-1.352c-1.4,-0.902 -2.497,-2.174 -3.293,-3.819c-0.796,-1.644 -1.194,-3.583 -1.194,-5.817c0,-2.244 0.398,-4.19 1.194,-5.839c0.796,-1.649 1.893,-2.924 3.293,-3.825c1.4,-0.902 3.001,-1.352 4.804,-1.352c1.524,-0 2.883,0.309 4.077,0.927c1.193,0.619 2.171,1.458 2.934,2.517c0.762,1.06 1.258,2.251 1.488,3.574l-2.042,-0c-0.201,-0.978 -0.599,-1.853 -1.194,-2.625c-0.594,-0.772 -1.34,-1.378 -2.236,-1.819c-0.897,-0.441 -1.906,-0.662 -3.027,-0.662c-1.343,0 -2.568,0.35 -3.675,1.05c-1.107,0.7 -1.989,1.726 -2.646,3.078c-0.657,1.352 -0.985,3.011 -0.985,4.976c-0,1.966 0.331,3.624 0.992,4.976c0.662,1.352 1.544,2.373 2.646,3.063c1.103,0.691 2.325,1.036 3.668,1.036c1.121,-0 2.13,-0.223 3.027,-0.669c0.896,-0.446 1.642,-1.055 2.236,-1.826c0.595,-0.772 0.993,-1.642 1.194,-2.611l2.042,0c-0.22,1.304 -0.712,2.486 -1.474,3.545c-0.762,1.06 -1.74,1.904 -2.934,2.532c-1.193,0.628 -2.557,0.942 -4.091,0.942Z" style="fill:#ec008c;fill-rule:nonzero;"/><path d="M296.906,153.092c-1.812,-0 -3.418,-0.451 -4.818,-1.352c-1.4,-0.902 -2.497,-2.174 -3.293,-3.819c-0.796,-1.644 -1.194,-3.583 -1.194,-5.817c0,-2.244 0.398,-4.19 1.194,-5.839c0.796,-1.649 1.893,-2.924 3.293,-3.825c1.4,-0.902 3.006,-1.352 4.818,-1.352c1.803,-0 3.404,0.45 4.804,1.352c1.399,0.901 2.495,2.176 3.286,3.825c0.791,1.649 1.186,3.595 1.186,5.839c0,2.234 -0.395,4.173 -1.186,5.817c-0.791,1.645 -1.887,2.917 -3.286,3.819c-1.4,0.901 -3.001,1.352 -4.804,1.352Zm0,-1.913c1.39,-0 2.634,-0.36 3.732,-1.079c1.098,-0.719 1.966,-1.757 2.603,-3.113c0.638,-1.357 0.957,-2.985 0.957,-4.883c-0,-1.908 -0.319,-3.543 -0.957,-4.904c-0.637,-1.362 -1.505,-2.402 -2.603,-3.121c-1.098,-0.719 -2.342,-1.079 -3.732,-1.079c-1.4,0 -2.651,0.36 -3.754,1.079c-1.102,0.719 -1.972,1.759 -2.61,3.121c-0.637,1.361 -0.956,2.996 -0.956,4.904c-0,1.889 0.319,3.512 0.956,4.868c0.638,1.357 1.508,2.397 2.61,3.121c1.103,0.724 2.354,1.086 3.754,1.086Z" style="fill:#ec008c;fill-rule:nonzero;"/><path d="M310.899,152.804l0,-21.429l6.99,0c2.272,0 3.993,0.604 5.163,1.812c1.17,1.208 1.754,2.757 1.754,4.646c0,1.428 -0.34,2.663 -1.021,3.703c-0.68,1.04 -1.682,1.781 -3.005,2.222l4.918,9.046l-2.359,-0l-4.645,-8.643c-0.259,0.019 -0.522,0.028 -0.791,0.028l-4.961,0l-0,8.615l-2.043,-0Zm2.043,-10.455l4.875,-0c1.659,-0 2.9,-0.408 3.725,-1.223c0.824,-0.815 1.237,-1.913 1.237,-3.293c-0,-1.4 -0.413,-2.522 -1.237,-3.366c-0.825,-0.843 -2.071,-1.265 -3.739,-1.265l-4.861,-0l-0,9.147Z" style="fill:#ec008c;fill-rule:nonzero;"/><path d="M329.581,152.804l0,-21.429l6.99,0c2.272,0 3.993,0.604 5.163,1.812c1.169,1.208 1.754,2.757 1.754,4.646c0,1.428 -0.34,2.663 -1.021,3.703c-0.681,1.04 -1.683,1.781 -3.006,2.222l4.919,9.046l-2.359,-0l-4.645,-8.643c-0.259,0.019 -0.523,0.028 -0.791,0.028l-4.962,0l0,8.615l-2.042,-0Zm2.042,-10.455l4.876,-0c1.658,-0 2.9,-0.408 3.725,-1.223c0.824,-0.815 1.236,-1.913 1.236,-3.293c0,-1.4 -0.412,-2.522 -1.236,-3.366c-0.825,-0.843 -2.071,-1.265 -3.74,-1.265l-4.861,-0l0,9.147Z" style="fill:#ec008c;fill-rule:nonzero;"/><path d="M348.263,152.804l-0,-21.429l12.512,0l-0,1.827l-10.47,-0l0,7.91l9.808,-0l0,1.826l-9.808,0l0,8.04l10.671,-0l0,1.826l-12.713,-0Z" style="fill:#ec008c;fill-rule:nonzero;"/><path d="M374.135,153.092c-1.802,-0 -3.403,-0.451 -4.803,-1.352c-1.4,-0.902 -2.498,-2.174 -3.293,-3.819c-0.796,-1.644 -1.194,-3.583 -1.194,-5.817c-0,-2.244 0.398,-4.19 1.194,-5.839c0.795,-1.649 1.893,-2.924 3.293,-3.825c1.4,-0.902 3.001,-1.352 4.803,-1.352c1.525,-0 2.884,0.309 4.078,0.927c1.193,0.619 2.171,1.458 2.934,2.517c0.762,1.06 1.258,2.251 1.488,3.574l-2.042,-0c-0.202,-0.978 -0.599,-1.853 -1.194,-2.625c-0.594,-0.772 -1.34,-1.378 -2.236,-1.819c-0.897,-0.441 -1.906,-0.662 -3.028,-0.662c-1.342,0 -2.567,0.35 -3.674,1.05c-1.107,0.7 -1.989,1.726 -2.646,3.078c-0.657,1.352 -0.985,3.011 -0.985,4.976c-0,1.966 0.33,3.624 0.992,4.976c0.661,1.352 1.544,2.373 2.646,3.063c1.103,0.691 2.325,1.036 3.667,1.036c1.122,-0 2.131,-0.223 3.028,-0.669c0.896,-0.446 1.642,-1.055 2.236,-1.826c0.595,-0.772 0.992,-1.642 1.194,-2.611l2.042,0c-0.22,1.304 -0.712,2.486 -1.474,3.545c-0.762,1.06 -1.74,1.904 -2.934,2.532c-1.194,0.628 -2.557,0.942 -4.092,0.942Z" style="fill:#ec008c;fill-rule:nonzero;"/><path d="M385.957,133.202l0,-1.827l15.619,0l-0,1.827l-6.774,-0l-0,19.602l-2.042,-0l-0,-19.602l-6.803,-0Z" style="fill:#ec008c;fill-rule:nonzero;"/><rect x="405.962" y="131.375" width="2.042" height="21.429" style="fill:#ec008c;fill-rule:nonzero;"/><path d="M419.596,152.804l-7.924,-21.429l2.142,0l5.092,14.008c0.249,0.681 0.532,1.496 0.848,2.445c0.316,0.949 0.666,2.052 1.05,3.308c0.393,-1.285 0.745,-2.395 1.057,-3.33c0.312,-0.934 0.587,-1.742 0.827,-2.423l5.005,-14.008l2.171,0l-7.866,21.429l-2.402,-0Z" style="fill:#ec008c;fill-rule:nonzero;"/><path d="M433.517,152.804l0,-21.429l12.512,0l0,1.827l-10.47,-0l0,7.91l9.809,-0l-0,1.826l-9.809,0l0,8.04l10.672,-0l-0,1.826l-12.714,-0Z" style="fill:#ec008c;fill-rule:nonzero;"/><path d="M459.332,152.804l0,-21.429l2.057,0l-0,19.603l10.182,-0l0,1.826l-12.239,-0Z" style="fill:#ec008c;fill-rule:nonzero;"/><path d="M475.958,152.804l-0,-21.429l12.512,0l-0,1.827l-10.47,-0l-0,7.91l9.808,-0l0,1.826l-9.808,0l-0,8.04l10.671,-0l-0,1.826l-12.713,-0Z" style="fill:#ec008c;fill-rule:nonzero;"/><path d="M493.489,152.804l-0,-21.429l2.358,0l9.765,14.555c0.355,0.536 0.768,1.186 1.237,1.948c0.47,0.762 0.949,1.594 1.438,2.495c-0.057,-0.939 -0.095,-1.821 -0.115,-2.646c-0.019,-0.824 -0.028,-1.548 -0.028,-2.171l-0,-14.181l2.042,0l-0,21.429l-2.373,-0l-9.118,-13.548c-0.499,-0.738 -0.992,-1.51 -1.481,-2.315c-0.489,-0.805 -1.103,-1.826 -1.841,-3.063c0.048,1.15 0.088,2.188 0.122,3.113c0.034,0.926 0.05,1.676 0.05,2.251l0,13.562l-2.056,-0Z" style="fill:#ec008c;fill-rule:nonzero;"/><path d="M522.295,153.164c-2.195,-0 -3.95,-0.533 -5.263,-1.597c-1.314,-1.064 -2.028,-2.459 -2.143,-4.185l2.085,0c0.105,1.275 0.664,2.248 1.675,2.92c1.012,0.671 2.227,1.006 3.646,1.006c1.064,0 2.006,-0.177 2.826,-0.532c0.82,-0.355 1.465,-0.848 1.935,-1.481c0.469,-0.633 0.704,-1.376 0.704,-2.229c0,-1.074 -0.407,-1.894 -1.222,-2.46c-0.815,-0.565 -1.894,-1.049 -3.236,-1.452l-2.531,-0.734c-1.707,-0.498 -3.02,-1.196 -3.941,-2.092c-0.92,-0.897 -1.38,-2.026 -1.38,-3.387c-0,-1.16 0.309,-2.181 0.927,-3.063c0.619,-0.882 1.46,-1.57 2.524,-2.064c1.064,-0.494 2.258,-0.741 3.581,-0.741c1.352,0 2.543,0.25 3.574,0.748c1.031,0.499 1.846,1.175 2.445,2.028c0.599,0.853 0.923,1.826 0.971,2.919l-1.999,0c-0.125,-1.188 -0.648,-2.128 -1.568,-2.818c-0.92,-0.691 -2.081,-1.036 -3.48,-1.036c-1.467,0 -2.663,0.372 -3.589,1.115c-0.925,0.743 -1.387,1.685 -1.387,2.826c-0,0.738 0.208,1.354 0.625,1.848c0.417,0.494 0.949,0.899 1.597,1.215c0.647,0.316 1.315,0.575 2.006,0.777l2.243,0.647c0.921,0.259 1.829,0.613 2.726,1.064c0.896,0.451 1.639,1.05 2.229,1.798c0.589,0.748 0.884,1.711 0.884,2.89c0,1.161 -0.297,2.196 -0.891,3.107c-0.595,0.911 -1.451,1.632 -2.568,2.164c-1.116,0.532 -2.452,0.799 -4.005,0.799Z" style="fill:#ec008c;fill-rule:nonzero;"/><path d="M534.462,152.804l0,-21.429l12.512,0l0,1.827l-10.47,-0l0,7.91l9.809,-0l-0,1.826l-9.809,0l0,8.04l10.671,-0l0,1.826l-12.713,-0Z" style="fill:#ec008c;fill-rule:nonzero;"/><path d="M558.436,153.164c-2.195,-0 -3.95,-0.533 -5.263,-1.597c-1.314,-1.064 -2.028,-2.459 -2.143,-4.185l2.085,0c0.106,1.275 0.664,2.248 1.676,2.92c1.011,0.671 2.226,1.006 3.645,1.006c1.065,0 2.007,-0.177 2.826,-0.532c0.82,-0.355 1.465,-0.848 1.935,-1.481c0.469,-0.633 0.704,-1.376 0.704,-2.229c0,-1.074 -0.407,-1.894 -1.222,-2.46c-0.815,-0.565 -1.894,-1.049 -3.236,-1.452l-2.531,-0.734c-1.707,-0.498 -3.02,-1.196 -3.941,-2.092c-0.92,-0.897 -1.38,-2.026 -1.38,-3.387c-0,-1.16 0.309,-2.181 0.927,-3.063c0.619,-0.882 1.46,-1.57 2.524,-2.064c1.064,-0.494 2.258,-0.741 3.581,-0.741c1.352,0 2.543,0.25 3.574,0.748c1.031,0.499 1.846,1.175 2.445,2.028c0.599,0.853 0.923,1.826 0.971,2.919l-1.999,0c-0.125,-1.188 -0.648,-2.128 -1.568,-2.818c-0.92,-0.691 -2.08,-1.036 -3.48,-1.036c-1.467,0 -2.663,0.372 -3.589,1.115c-0.925,0.743 -1.387,1.685 -1.387,2.826c-0,0.738 0.208,1.354 0.625,1.848c0.417,0.494 0.949,0.899 1.597,1.215c0.647,0.316 1.316,0.575 2.006,0.777l2.243,0.647c0.921,0.259 1.829,0.613 2.726,1.064c0.896,0.451 1.639,1.05 2.229,1.798c0.59,0.748 0.884,1.711 0.884,2.89c0,1.161 -0.297,2.196 -0.891,3.107c-0.595,0.911 -1.45,1.632 -2.567,2.164c-1.117,0.532 -2.453,0.799 -4.006,0.799Z" style="fill:#ec008c;fill-rule:nonzero;"/></g></svg>