<svg width="1268" height="171" viewBox="0 0 1268 171" fill="none" xmlns="http://www.w3.org/2000/svg">
<path d="M1227.68 133.661C1220.18 133.661 1213.45 132.47 1207.5 130.089C1201.55 127.649 1196.49 124.286 1192.32 120C1188.21 115.714 1185.06 110.744 1182.86 105.089C1180.65 99.375 1179.55 93.3036 1179.55 86.875V83.3036C1179.55 75.9822 1180.6 69.2857 1182.68 63.2143C1184.76 57.1429 1187.74 51.875 1191.61 47.4108C1195.54 42.9465 1200.3 39.5238 1205.89 37.1429C1211.49 34.7024 1217.8 33.4822 1224.82 33.4822C1231.67 33.4822 1237.74 34.6131 1243.04 36.875C1248.33 39.1369 1252.77 42.3512 1256.34 46.5179C1259.97 50.6846 1262.71 55.6846 1264.55 61.5179C1266.4 67.2917 1267.32 73.7203 1267.32 80.8036V91.5179H1190.54V74.375H1242.05V72.4108C1242.05 68.8393 1241.4 65.6548 1240.09 62.8572C1238.84 60 1236.93 57.7381 1234.38 56.0715C1231.82 54.4048 1228.54 53.5715 1224.55 53.5715C1221.16 53.5715 1218.24 54.3155 1215.8 55.8036C1213.36 57.2917 1211.37 59.375 1209.82 62.0536C1208.33 64.7322 1207.2 67.8869 1206.43 71.5179C1205.71 75.0893 1205.36 79.0179 1205.36 83.3036V86.875C1205.36 90.7441 1205.89 94.3155 1206.96 97.5893C1208.1 100.863 1209.67 103.691 1211.7 106.071C1213.78 108.452 1216.28 110.298 1219.2 111.607C1222.17 112.917 1225.54 113.571 1229.29 113.571C1233.93 113.571 1238.24 112.679 1242.23 110.893C1246.28 109.048 1249.76 106.28 1252.68 102.589L1265.18 116.161C1263.15 119.077 1260.39 121.875 1256.88 124.554C1253.42 127.232 1249.26 129.435 1244.38 131.161C1239.49 132.827 1233.93 133.661 1227.68 133.661Z" fill="black"/>
<path d="M1050.54 55.2679V131.875H1024.73V35.2679H1048.93L1050.54 55.2679ZM1046.96 80.1786H1039.82C1039.82 73.4524 1040.63 67.2619 1042.23 61.6072C1043.9 55.8929 1046.31 50.9524 1049.46 46.7858C1052.68 42.5596 1056.64 39.2857 1061.34 36.9643C1066.04 34.6429 1071.49 33.4822 1077.68 33.4822C1081.96 33.4822 1085.89 34.1369 1089.46 35.4465C1093.04 36.6965 1096.1 38.6905 1098.66 41.4286C1101.28 44.1072 1103.3 47.6191 1104.73 51.9643C1106.16 56.25 1106.88 61.3988 1106.88 67.4108V131.875H1081.16V70.2679C1081.16 65.8631 1080.57 62.4703 1079.38 60.0893C1078.18 57.7084 1076.49 56.0417 1074.29 55.0893C1072.14 54.1369 1069.55 53.6608 1066.52 53.6608C1063.18 53.6608 1060.27 54.3453 1057.77 55.7143C1055.33 57.0834 1053.3 58.9881 1051.7 61.4286C1050.09 63.8096 1048.9 66.6072 1048.13 69.8215C1047.35 73.0358 1046.96 76.4881 1046.96 80.1786ZM1104.46 77.2322L1095.27 78.3929C1095.27 72.0834 1096.04 66.2203 1097.59 60.8036C1099.2 55.3869 1101.55 50.625 1104.64 46.5179C1107.8 42.4108 1111.7 39.2262 1116.34 36.9643C1120.98 34.6429 1126.34 33.4822 1132.41 33.4822C1137.05 33.4822 1141.28 34.1667 1145.09 35.5358C1148.9 36.8453 1152.14 38.9584 1154.82 41.875C1157.56 44.7322 1159.64 48.4822 1161.07 53.125C1162.56 57.7679 1163.3 63.4524 1163.3 70.1786V131.875H1137.5V70.1786C1137.5 65.7143 1136.9 62.3215 1135.71 60C1134.58 57.6191 1132.92 55.9822 1130.71 55.0893C1128.57 54.1369 1126.01 53.6608 1123.04 53.6608C1119.94 53.6608 1117.23 54.2858 1114.91 55.5358C1112.59 56.7262 1110.65 58.3929 1109.11 60.5358C1107.56 62.6786 1106.4 65.1786 1105.63 68.0358C1104.85 70.8334 1104.46 73.8988 1104.46 77.2322Z" fill="black"/>
<path d="M979.107 110.089V67.0536C979.107 63.9584 978.601 61.3096 977.589 59.1072C976.577 56.8453 975 55.0893 972.857 53.8393C970.774 52.5893 968.066 51.9643 964.732 51.9643C961.875 51.9643 959.405 52.4703 957.321 53.4822C955.238 54.4346 953.631 55.8334 952.5 57.6786C951.369 59.4643 950.804 61.5774 950.804 64.0179H925.089C925.089 59.9108 926.042 56.0119 927.946 52.3215C929.851 48.631 932.619 45.3869 936.25 42.5893C939.881 39.7322 944.196 37.5 949.196 35.8929C954.256 34.2858 959.911 33.4822 966.161 33.4822C973.661 33.4822 980.327 34.7322 986.161 37.2322C991.994 39.7322 996.577 43.4822 999.911 48.4822C1003.3 53.4822 1005 59.7322 1005 67.2322V108.571C1005 113.869 1005.33 118.214 1005.98 121.607C1006.64 124.941 1007.59 127.857 1008.84 130.357V131.875H982.857C981.607 129.256 980.655 125.982 980 122.054C979.405 118.066 979.107 114.077 979.107 110.089ZM982.5 73.0358L982.679 87.5893H968.304C964.911 87.5893 961.964 87.9762 959.464 88.75C956.964 89.5238 954.911 90.625 953.304 92.0536C951.696 93.4227 950.506 95.0298 949.732 96.875C949.018 98.7203 948.661 100.744 948.661 102.946C948.661 105.149 949.167 107.143 950.179 108.929C951.19 110.655 952.649 112.024 954.554 113.036C956.458 113.988 958.69 114.464 961.25 114.464C965.119 114.464 968.482 113.691 971.339 112.143C974.196 110.595 976.399 108.691 977.946 106.429C979.554 104.167 980.387 102.024 980.446 100L987.232 110.893C986.28 113.333 984.97 115.863 983.304 118.482C981.696 121.101 979.643 123.571 977.143 125.893C974.643 128.155 971.637 130.03 968.125 131.518C964.613 132.946 960.446 133.661 955.625 133.661C949.494 133.661 943.929 132.441 938.929 130C933.988 127.5 930.06 124.077 927.143 119.732C924.286 115.327 922.857 110.327 922.857 104.732C922.857 99.6727 923.81 95.1786 925.714 91.25C927.619 87.3215 930.417 84.0179 934.107 81.3393C937.857 78.6012 942.53 76.5477 948.125 75.1786C953.72 73.75 960.208 73.0358 967.589 73.0358H982.5Z" fill="black"/>
<path d="M849.643 55.8929V131.875H823.929V35.2679H848.036L849.643 55.8929ZM845.893 80.1786H838.929C838.929 73.0358 839.851 66.6072 841.696 60.8929C843.542 55.1191 846.131 50.2084 849.464 46.1608C852.798 42.0536 856.756 38.9286 861.339 36.7858C865.982 34.5834 871.161 33.4822 876.875 33.4822C881.399 33.4822 885.536 34.1369 889.286 35.4465C893.036 36.756 896.25 38.8393 898.929 41.6965C901.667 44.5536 903.75 48.3334 905.179 53.0358C906.667 57.7381 907.411 63.4822 907.411 70.2679V131.875H881.518V70.1786C881.518 65.8929 880.923 62.5596 879.732 60.1786C878.542 57.7977 876.786 56.131 874.464 55.1786C872.202 54.1667 869.405 53.6608 866.071 53.6608C862.619 53.6608 859.613 54.3453 857.054 55.7143C854.554 57.0834 852.47 58.9881 850.804 61.4286C849.196 63.8096 847.976 66.6072 847.143 69.8215C846.31 73.0358 845.893 76.4881 845.893 80.1786Z" fill="black"/>
<path d="M715.446 120.982L741.071 35.2678H768.661L729.821 146.429C728.988 148.869 727.857 151.488 726.429 154.286C725.06 157.083 723.185 159.732 720.804 162.232C718.482 164.792 715.536 166.875 711.964 168.482C708.452 170.089 704.137 170.893 699.018 170.893C696.577 170.893 694.583 170.744 693.036 170.446C691.488 170.149 689.643 169.732 687.5 169.196V150.357C688.155 150.357 688.839 150.357 689.554 150.357C690.268 150.417 690.952 150.446 691.607 150.446C695 150.446 697.768 150.059 699.911 149.286C702.054 148.512 703.78 147.321 705.089 145.714C706.399 144.167 707.44 142.143 708.214 139.643L715.446 120.982ZM704.732 35.2678L725.714 105.268L729.375 132.5L711.875 134.375L677.143 35.2678H704.732Z" fill="black"/>
<path d="M609.464 55.8929V131.875H583.75V35.2679H607.857L609.464 55.8929ZM605.714 80.1786H598.75C598.75 73.0358 599.673 66.6072 601.518 60.8929C603.363 55.1191 605.952 50.2084 609.286 46.1608C612.619 42.0536 616.577 38.9286 621.161 36.7858C625.804 34.5834 630.982 33.4822 636.696 33.4822C641.22 33.4822 645.357 34.1369 649.107 35.4465C652.857 36.756 656.071 38.8393 658.75 41.6965C661.488 44.5536 663.571 48.3334 665 53.0358C666.488 57.7381 667.232 63.4822 667.232 70.2679V131.875H641.339V70.1786C641.339 65.8929 640.744 62.5596 639.554 60.1786C638.363 57.7977 636.607 56.131 634.286 55.1786C632.024 54.1667 629.226 53.6608 625.893 53.6608C622.44 53.6608 619.435 54.3453 616.875 55.7143C614.375 57.0834 612.292 58.9881 610.625 61.4286C609.018 63.8096 607.798 66.6072 606.964 69.8215C606.131 73.0358 605.714 76.4881 605.714 80.1786Z" fill="black"/>
<path d="M538.572 110.089V67.0536C538.572 63.9584 538.066 61.3096 537.054 59.1072C536.042 56.8453 534.464 55.0893 532.322 53.8393C530.238 52.5893 527.53 51.9643 524.197 51.9643C521.339 51.9643 518.869 52.4703 516.786 53.4822C514.702 54.4346 513.095 55.8334 511.964 57.6786C510.833 59.4643 510.268 61.5774 510.268 64.0179H484.554C484.554 59.9108 485.506 56.0119 487.411 52.3215C489.316 48.631 492.083 45.3869 495.714 42.5893C499.345 39.7322 503.661 37.5 508.661 35.8929C513.72 34.2858 519.375 33.4822 525.625 33.4822C533.125 33.4822 539.792 34.7322 545.625 37.2322C551.458 39.7322 556.042 43.4822 559.375 48.4822C562.768 53.4822 564.464 59.7322 564.464 67.2322V108.571C564.464 113.869 564.792 118.214 565.447 121.607C566.101 124.941 567.054 127.857 568.304 130.357V131.875H542.322C541.072 129.256 540.119 125.982 539.464 122.054C538.869 118.066 538.572 114.077 538.572 110.089ZM541.964 73.0358L542.143 87.5893H527.768C524.375 87.5893 521.429 87.9762 518.929 88.75C516.429 89.5238 514.375 90.625 512.768 92.0536C511.161 93.4227 509.97 95.0298 509.197 96.875C508.482 98.7203 508.125 100.744 508.125 102.946C508.125 105.149 508.631 107.143 509.643 108.929C510.655 110.655 512.113 112.024 514.018 113.036C515.923 113.988 518.155 114.464 520.714 114.464C524.583 114.464 527.947 113.691 530.804 112.143C533.661 110.595 535.863 108.691 537.411 106.429C539.018 104.167 539.851 102.024 539.911 100L546.697 110.893C545.744 113.333 544.435 115.863 542.768 118.482C541.161 121.101 539.107 123.571 536.607 125.893C534.107 128.155 531.101 130.03 527.589 131.518C524.077 132.946 519.911 133.661 515.089 133.661C508.958 133.661 503.393 132.441 498.393 130C493.452 127.5 489.524 124.077 486.607 119.732C483.75 115.327 482.322 110.327 482.322 104.732C482.322 99.6727 483.274 95.1786 485.179 91.25C487.083 87.3215 489.881 84.0179 493.572 81.3393C497.322 78.6012 501.994 76.5477 507.589 75.1786C513.185 73.75 519.673 73.0358 527.054 73.0358H541.964Z" fill="black"/>
<path d="M409.286 53.8393V169.018H383.571V35.2679H407.411L409.286 53.8393ZM470.446 82.5V84.375C470.446 91.3988 469.613 97.9167 467.946 103.929C466.339 109.941 463.958 115.179 460.804 119.643C457.649 124.048 453.72 127.5 449.018 130C444.375 132.441 439.018 133.661 432.946 133.661C427.054 133.661 421.935 132.47 417.589 130.089C413.244 127.708 409.583 124.375 406.607 120.089C403.69 115.744 401.339 110.714 399.554 105C397.768 99.2858 396.399 93.1548 395.446 86.6072V81.6965C396.399 74.6727 397.768 68.2441 399.554 62.4108C401.339 56.5179 403.69 51.4286 406.607 47.1429C409.583 42.7977 413.214 39.4346 417.5 37.0536C421.845 34.6727 426.935 33.4822 432.768 33.4822C438.899 33.4822 444.286 34.6429 448.929 36.9643C453.631 39.2857 457.56 42.6191 460.714 46.9643C463.929 51.3096 466.339 56.4881 467.946 62.5C469.613 68.5119 470.446 75.1786 470.446 82.5ZM444.643 84.375V82.5C444.643 78.3929 444.286 74.6131 443.571 71.1608C442.917 67.6488 441.845 64.5834 440.357 61.9643C438.929 59.3453 437.024 57.3215 434.643 55.8929C432.321 54.4048 429.494 53.6608 426.161 53.6608C422.649 53.6608 419.643 54.2262 417.143 55.3572C414.702 56.4881 412.708 58.125 411.161 60.2679C409.613 62.4108 408.452 64.9703 407.679 67.9465C406.905 70.9227 406.429 74.2858 406.25 78.0358V90.4465C406.548 94.8512 407.381 98.8096 408.75 102.321C410.119 105.774 412.232 108.512 415.089 110.536C417.946 112.56 421.696 113.571 426.339 113.571C429.732 113.571 432.589 112.827 434.911 111.339C437.232 109.792 439.107 107.679 440.536 105C442.024 102.321 443.065 99.2262 443.661 95.7143C444.315 92.2024 444.643 88.4227 444.643 84.375Z" fill="black"/>
<path d="M250.893 55.2679V131.875H225.089V35.2679H249.286L250.893 55.2679ZM247.321 80.1786H240.179C240.179 73.4524 240.982 67.2619 242.589 61.6072C244.256 55.8929 246.667 50.9524 249.821 46.7858C253.036 42.5596 256.994 39.2857 261.696 36.9643C266.399 34.6429 271.845 33.4822 278.036 33.4822C282.321 33.4822 286.25 34.1369 289.821 35.4465C293.393 36.6965 296.458 38.6905 299.018 41.4286C301.637 44.1072 303.661 47.6191 305.089 51.9643C306.518 56.25 307.232 61.3988 307.232 67.4108V131.875H281.518V70.2679C281.518 65.8631 280.923 62.4703 279.732 60.0893C278.542 57.7084 276.845 56.0417 274.643 55.0893C272.5 54.1369 269.911 53.6608 266.875 53.6608C263.542 53.6608 260.625 54.3453 258.125 55.7143C255.685 57.0834 253.661 58.9881 252.054 61.4286C250.446 63.8096 249.256 66.6072 248.482 69.8215C247.708 73.0358 247.321 76.4881 247.321 80.1786ZM304.821 77.2322L295.625 78.3929C295.625 72.0834 296.399 66.2203 297.946 60.8036C299.554 55.3869 301.905 50.625 305 46.5179C308.155 42.4108 312.054 39.2262 316.696 36.9643C321.339 34.6429 326.697 33.4822 332.768 33.4822C337.411 33.4822 341.637 34.1667 345.446 35.5358C349.256 36.8453 352.5 38.9584 355.179 41.875C357.917 44.7322 360 48.4822 361.429 53.125C362.917 57.7679 363.661 63.4524 363.661 70.1786V131.875H337.857V70.1786C337.857 65.7143 337.262 62.3215 336.071 60C334.941 57.6191 333.274 55.9822 331.071 55.0893C328.929 54.1369 326.369 53.6608 323.393 53.6608C320.298 53.6608 317.589 54.2858 315.268 55.5358C312.947 56.7262 311.012 58.3929 309.464 60.5358C307.917 62.6786 306.756 65.1786 305.982 68.0358C305.208 70.8334 304.821 73.8988 304.821 77.2322Z" fill="black"/>
<path d="M117.857 84.5536V82.6786C117.857 75.5953 118.869 69.0774 120.893 63.125C122.917 57.1131 125.863 51.9048 129.732 47.5C133.601 43.0953 138.363 39.6727 144.018 37.2322C149.673 34.7322 156.161 33.4822 163.482 33.4822C170.804 33.4822 177.321 34.7322 183.036 37.2322C188.75 39.6727 193.542 43.0953 197.411 47.5C201.339 51.9048 204.316 57.1131 206.339 63.125C208.363 69.0774 209.375 75.5953 209.375 82.6786V84.5536C209.375 91.5774 208.363 98.0953 206.339 104.107C204.316 110.06 201.339 115.268 197.411 119.732C193.542 124.137 188.78 127.56 183.125 130C177.47 132.441 170.982 133.661 163.661 133.661C156.339 133.661 149.821 132.441 144.107 130C138.452 127.56 133.661 124.137 129.732 119.732C125.863 115.268 122.917 110.06 120.893 104.107C118.869 98.0953 117.857 91.5774 117.857 84.5536ZM143.571 82.6786V84.5536C143.571 88.6012 143.929 92.381 144.643 95.8929C145.357 99.4048 146.488 102.5 148.036 105.179C149.643 107.798 151.726 109.851 154.286 111.339C156.845 112.827 159.97 113.571 163.661 113.571C167.232 113.571 170.298 112.827 172.857 111.339C175.417 109.851 177.47 107.798 179.018 105.179C180.566 102.5 181.696 99.4048 182.411 95.8929C183.185 92.381 183.571 88.6012 183.571 84.5536V82.6786C183.571 78.75 183.185 75.0596 182.411 71.6072C181.696 68.0953 180.536 65 178.929 62.3215C177.381 59.5834 175.327 57.4405 172.768 55.8929C170.208 54.3453 167.113 53.5715 163.482 53.5715C159.851 53.5715 156.756 54.3453 154.196 55.8929C151.696 57.4405 149.643 59.5834 148.036 62.3215C146.488 65 145.357 68.0953 144.643 71.6072C143.929 75.0596 143.571 78.75 143.571 82.6786Z" fill="black"/>
<path d="M79.2857 88.75H105.982C105.446 97.5 103.036 105.268 98.75 112.054C94.5238 118.839 88.6012 124.137 80.9821 127.946C73.4226 131.756 64.3155 133.661 53.6607 133.661C45.3274 133.661 37.8571 132.232 31.25 129.375C24.6429 126.458 18.9881 122.292 14.2857 116.875C9.64286 111.458 6.10119 104.911 3.66071 97.2321C1.22024 89.5536 0 80.9524 0 71.4286V62.4107C0 52.8869 1.25 44.2857 3.75 36.6071C6.30952 28.869 9.94048 22.2917 14.6429 16.875C19.4048 11.4583 25.0893 7.29167 31.6964 4.375C38.3036 1.45833 45.6845 0 53.8393 0C64.6726 0 73.8095 1.96429 81.25 5.89286C88.75 9.82143 94.5536 15.2381 98.6607 22.1429C102.827 29.0476 105.327 36.9048 106.161 45.7143H79.375C79.0774 40.4762 78.0357 36.0417 76.25 32.4107C74.4643 28.7202 71.756 25.9524 68.125 24.1071C64.5536 22.2024 59.7917 21.25 53.8393 21.25C49.375 21.25 45.4762 22.0833 42.1429 23.75C38.8095 25.4167 36.0119 27.9464 33.75 31.3393C31.4881 34.7321 29.7917 39.0179 28.6607 44.1964C27.5893 49.3155 27.0536 55.3274 27.0536 62.2321V71.4286C27.0536 78.1548 27.5595 84.0774 28.5714 89.1964C29.5833 94.256 31.131 98.5417 33.2143 102.054C35.3571 105.506 38.0952 108.125 41.4286 109.911C44.8214 111.637 48.8988 112.5 53.6607 112.5C59.256 112.5 63.869 111.607 67.5 109.821C71.131 108.036 73.8988 105.387 75.8036 101.875C77.7679 98.3631 78.9286 93.9881 79.2857 88.75Z" fill="black"/>
</svg>
