<svg xmlns="http://www.w3.org/2000/svg" viewBox="0 0 728.5 387.33"><defs><style>.cls-1{fill:#011e41;}.cls-2{fill:#ce0e2d;}</style></defs><g id="Livello_2" data-name="Livello 2"><g id="Livello_1-2" data-name="Livello 1"><path class="cls-1" d="M234.45,207.89,233.74,32c0-17.67,13.75-32,31.45-32h3.41a32,32,0,0,1,32,32l.71,175.87a32,32,0,0,1-32,32h-3.64C248,239.91,234.45,225.57,234.45,207.89Z"/><path class="cls-1" d="M638.48,20.8l71.1,115.76c15.38,25,18.92,31.51,18.92,49.91,0,29.09-26.33,51.35-49.67,51.35H582.75c-17.49,0-31.66-12.17-31.66-29.64v-2a31.65,31.65,0,0,1,31.66-31.64h58.91c3.7,0,6-.51,7-2.82,1.12-2.54.79-4-1-6.83l-42-67.3c-.66-1.13-1.47-2.69-2.77-2.69s-2.27,1.56-2.84,2.77L536,207.61c-10,17.45-21.73,30.19-39.21,30.19H373.63c-23.34,0-46.83-23-46.83-46.81V31.91A31.65,31.65,0,0,1,358.44.26h4a31.65,31.65,0,0,1,31.64,31.65v130a8.34,8.34,0,0,0,8.64,8.59l61.2,0c10.73,0,17.21-3.88,22.83-13.25L569.13,20.8c7.83-13,20.43-20,35.24-20C618.74.84,630.11,7.34,638.48,20.8Z"/><path class="cls-1" d="M76,155.45a8.6,8.6,0,0,0-8.62,8.63l0,44.25A31.65,31.65,0,0,1,35.68,240h-4A31.65,31.65,0,0,1,0,208.33v-80.5c0-20.47,15.67-37.7,37.7-37.7H166.29A31.65,31.65,0,0,1,198,121.77v2a31.65,31.65,0,0,1-31.66,31.65Z"/><path class="cls-2" d="M32,4.56H181.82c17.68,0,32,13.77,32,31.45v2a32,32,0,0,1-32,32H32A32,32,0,0,1,0,38V35.76C0,18.09,14.32,4.56,32,4.56Z"/><path class="cls-1" d="M10.24,335.14c.59,12.69,12.45,23.48,25.14,23.48,11.86-.23,20.29-7.23,23.25-15.3h8.78A33.78,33.78,0,0,1,1.7,332.17,34.3,34.3,0,0,1,35.38,298a33.72,33.72,0,0,1,28.95,16.61,34.16,34.16,0,0,1,5.1,18.14c0,.83-.12,1.55-.12,2.38Zm50.65-7.48c-2.61-15.3-15.07-22.18-25.39-22.18a25.58,25.58,0,0,0-25.26,22.18Z"/><path class="cls-1" d="M138.11,362.42l-25.27-62.75h8.78l20.64,51.72,22.06-51.72h8.78l-37.6,87.66h-8.66Z"/><path class="cls-1" d="M224.46,335.14c.59,12.69,12.46,23.48,25.15,23.48,11.86-.23,20.28-7.23,23.25-15.3h8.77a32.31,32.31,0,1,1,2-10.56c0,.83-.12,1.55-.12,2.38Zm50.65-7.48c-2.61-15.3-15.06-22.18-25.38-22.18a25.58,25.58,0,0,0-25.27,22.18Z"/><path class="cls-1" d="M326.83,299.67h8.66L355.89,354h.23L371,307.5h7.24L393.13,354h.24L414,299.67h8.54l-24.79,64.88h-9.37l-13.76-43.17h-.24l-13.52,43.17H351.5Z"/><path class="cls-1" d="M473.68,335.14c.59,12.69,12.45,23.48,25.14,23.48,11.86-.23,20.29-7.23,23.25-15.3h8.78a32.31,32.31,0,1,1,2-10.56c0,.83-.12,1.55-.12,2.38Zm50.65-7.48c-2.62-15.3-15.07-22.18-25.39-22.18a25.58,25.58,0,0,0-25.26,22.18Z"/><path class="cls-1" d="M648.16,364.55h-8.3V353.17h-.24c-7.12,10.67-18.5,12.93-25.26,12.93-20.41,0-34.88-15.54-34.88-34.17,0-17.31,13.64-33.92,34.88-33.92,7,0,18.38,2.25,25.26,13.05h.24V299.67h8.3Zm-33.8-5.93a26.07,26.07,0,0,0,26-26.45c0-14.23-11-26.69-26-26.69-14.24,0-26.57,10.32-26.57,26.81C587.79,346.76,598.46,358.62,614.36,358.62Z"/><path class="cls-1" d="M700,299.67h8.3V309h.24c3.92-9.13,11.27-10.56,18.27-11v8.78c-5.82.47-10.8,2.61-14,6.4a21.24,21.24,0,0,0-4.51,13.41v37.95H700Z"/></g></g></svg>