<?xml version="1.0" encoding="UTF-8" standalone="no"?><!DOCTYPE svg PUBLIC "-//W3C//DTD SVG 1.1//EN" "http://www.w3.org/Graphics/SVG/1.1/DTD/svg11.dtd"><svg width="100%" height="100%" viewBox="0 0 6977 1759" version="1.1" xmlns="http://www.w3.org/2000/svg" xmlns:xlink="http://www.w3.org/1999/xlink" xml:space="preserve" xmlns:serif="http://www.serif.com/" style="fill-rule:evenodd;clip-rule:evenodd;stroke-linejoin:round;stroke-miterlimit:2;"><rect id="optika-logo" serif:id="optika logo" x="0" y="0" width="6976.99" height="1758.84" style="fill:none;"/><g><path d="M1180.36,1223.75c-119.489,124.268 -277.214,186.402 -473.175,186.402c-195.962,-0 -353.089,-62.433 -471.383,-187.299c-118.293,-124.865 -177.44,-284.681 -177.44,-479.448c-0,-194.766 59.147,-354.881 177.44,-480.344c118.294,-125.463 275.421,-188.194 471.383,-188.194c195.961,-0 353.686,62.731 473.175,188.194c119.488,125.463 179.232,285.578 179.232,480.344c0,194.767 -59.744,354.882 -179.232,480.345Zm-672.124,-215.08c46.601,68.109 113.514,102.163 200.741,102.163c87.227,-0 154.14,-34.054 200.741,-102.163c46.6,-68.108 69.901,-156.53 69.901,-265.265c-0,-108.734 -23.301,-197.454 -69.901,-266.16c-46.601,-68.706 -113.514,-103.059 -200.741,-103.059c-87.227,-0 -154.14,34.353 -200.741,103.059c-46.6,68.706 -69.901,157.426 -69.901,266.16c0,108.735 23.301,197.157 69.901,265.265Z" style="fill:#181716;"/><path d="M1463.54,1379.68l0,-1281.52l589.677,0c155.335,0 277.213,39.431 365.635,118.294c95.591,84.837 143.386,197.753 143.386,338.75c-0,124.268 -41.522,227.626 -124.567,310.073c-83.044,82.447 -188.493,123.67 -316.346,123.67l-283.188,0l0,390.728l-374.597,0Zm374.597,-971.442l0,290.357l202.533,0c45.406,0 81.551,-13.741 108.436,-41.223c26.885,-27.483 40.328,-63.329 40.328,-107.54c-0,-43.016 -13.443,-77.369 -40.328,-103.059c-26.885,-25.69 -64.225,-38.535 -112.02,-38.535l-198.949,-0Z" style="fill:#181716;"/><path d="M2607.05,417.203l0,-319.035l1104.08,0l-0,319.035l-367.428,-0l0,962.48l-374.596,0l-0,-962.48l-362.051,-0Z" style="fill:#181716;"/><rect x="3815.08" y="98.168" width="374.597" height="1281.52" style="fill:#181716;"/><path d="M4343.82,1379.68l-0,-1281.52l374.596,0l0,419.405l387.143,-419.405l430.159,0l-478.551,516.191l505.436,765.324l-435.536,0l-326.203,-507.229l-82.448,93.201l0,414.028l-374.596,0Z" style="fill:#181716;"/><path d="M5575.15,1379.68l473.174,-1281.52l381.766,0l474.967,1281.52l-397.897,0l-62.731,-188.194l-433.744,-0l-62.731,188.194l-372.804,0Zm604.014,-697.216l-84.239,250.926l265.264,0l-80.654,-250.926l-48.393,-164.894l-3.585,0c-17.923,68.108 -34.054,123.073 -48.393,164.894Z" style="fill:#181716;"/></g><g><path d="M4440.08,1667.41c-18.975,-0 -32.727,-7.224 -41.257,-21.673l-0.522,-0l-0,17.234l-47.002,-0l0,-186.701l49.352,0l-0,67.369l0.783,0c9.575,-12.011 22.631,-18.017 39.168,-18.017c17.408,-0 31.16,6.745 41.257,20.237c10.097,13.491 15.145,30.246 15.145,50.265c-0,22.631 -5.048,40.169 -15.145,52.616c-10.097,12.446 -24.023,18.67 -41.779,18.67Zm-34.468,-47.263c4.7,6.441 10.793,9.662 18.278,9.662c7.486,-0 13.187,-3.047 17.104,-9.14c3.917,-6.092 5.875,-14.448 5.875,-25.067c-0,-10.619 -2.002,-18.975 -6.006,-25.068c-4.004,-6.092 -9.661,-9.139 -16.973,-9.139c-7.485,0 -13.534,3.264 -18.147,9.792c-4.614,6.528 -6.92,14.666 -6.92,24.415c-0,9.922 2.263,18.104 6.789,24.545Z" style="fill:#181716;"/><path d="M4510.06,1707.1l-0,-38.123l16.45,-0c5.397,-0 9.314,-0.784 11.751,-2.351c2.437,-1.566 3.656,-4.09 3.656,-7.572c-0,-2.785 -2.002,-9.139 -6.006,-19.062l-42.563,-110.192l51.963,-0l16.451,53.529c1.218,4.004 2.48,8.704 3.786,14.101c1.305,5.396 2.306,9.835 3.003,13.317l1.044,4.961l0.522,0c2.612,-12.534 5.31,-23.327 8.095,-32.379l16.19,-53.529l49.09,-0l-45.435,133.171c-5.57,16.189 -12.49,27.591 -20.759,34.206c-8.269,6.615 -19.279,9.923 -33.031,9.923l-34.207,0Z" style="fill:#181716;"/><path d="M4691.8,1662.97l0,-186.701l92.698,0c20.367,0 37.209,4.744 50.526,14.231c13.317,9.488 19.976,23.283 19.976,41.388c-0,21.063 -10.184,36.208 -30.551,45.435l-0,0.783c14.1,5.396 22.804,15.667 26.112,30.812c1.393,5.919 2.263,13.274 2.611,22.065c0.348,8.791 0.784,15.71 1.306,20.759c0.522,5.048 1.741,7.833 3.655,8.355l0,2.873l-53.79,-0c-1.567,-1.045 -2.611,-3.873 -3.134,-8.487c-0.522,-4.613 -1.044,-10.488 -1.566,-17.625c-0.523,-7.137 -1.306,-12.882 -2.35,-17.234c-1.741,-7.486 -4.527,-12.969 -8.356,-16.451c-3.83,-3.481 -9.575,-5.222 -17.234,-5.222l-25.329,-0l0,65.019l-54.574,-0Zm54.574,-143.877l0,39.951l29.246,0c16.189,0 24.284,-6.615 24.284,-19.845c-0,-6.267 -2.002,-11.185 -6.006,-14.753c-4.004,-3.569 -9.836,-5.353 -17.495,-5.353l-30.029,-0Z" style="fill:#181716;"/><path d="M5028.39,1640.26c-17.408,18.105 -40.386,27.157 -68.935,27.157c-28.549,-0 -51.441,-9.096 -68.675,-27.287c-17.234,-18.192 -25.85,-41.475 -25.85,-69.85c-0,-28.375 8.616,-51.701 25.85,-69.98c17.234,-18.278 40.126,-27.417 68.675,-27.417c28.549,-0 51.527,9.139 68.935,27.417c17.408,18.279 26.112,41.605 26.112,69.98c0,28.375 -8.704,51.702 -26.112,69.98Zm-97.919,-31.334c6.789,9.923 16.537,14.884 29.245,14.884c12.708,-0 22.456,-4.961 29.245,-14.884c6.789,-9.923 10.184,-22.804 10.184,-38.646c0,-15.841 -3.395,-28.766 -10.184,-38.776c-6.789,-10.01 -16.537,-15.014 -29.245,-15.014c-12.708,-0 -22.456,5.004 -29.245,15.014c-6.79,10.01 -10.184,22.935 -10.184,38.776c-0,15.842 3.394,28.723 10.184,38.646Z" style="fill:#181716;"/><path d="M5069.64,1662.97l0,-186.701l54.574,0l0,139.96l79.903,0l-0,46.741l-134.477,-0Z" style="fill:#181716;"/><path d="M5218.48,1662.97l-0,-186.701l54.574,0l-0,139.96l79.902,0l0,46.741l-134.476,-0Z" style="fill:#181716;"/><path d="M5367.32,1662.97l-0,-186.701l145.443,0l0,44.391l-90.869,-0l-0,25.328l75.986,0l-0,40.996l-75.986,-0l-0,29.245l93.481,0l-0,46.741l-148.055,-0Z" style="fill:#181716;"/><path d="M5533.65,1662.97l-0,-186.701l92.697,0c20.368,0 37.21,4.744 50.527,14.231c13.317,9.488 19.976,23.283 19.976,41.388c-0,21.063 -10.184,36.208 -30.551,45.435l-0,0.783c14.1,5.396 22.804,15.667 26.112,30.812c1.392,5.919 2.263,13.274 2.611,22.065c0.348,8.791 0.783,15.71 1.306,20.759c0.522,5.048 1.74,7.833 3.655,8.355l0,2.873l-53.79,-0c-1.567,-1.045 -2.612,-3.873 -3.134,-8.487c-0.522,-4.613 -1.044,-10.488 -1.567,-17.625c-0.522,-7.137 -1.305,-12.882 -2.35,-17.234c-1.74,-7.486 -4.526,-12.969 -8.356,-16.451c-3.829,-3.481 -9.574,-5.222 -17.233,-5.222l-25.329,-0l-0,65.019l-54.574,-0Zm54.574,-143.877l-0,39.951l29.245,0c16.19,0 24.285,-6.615 24.285,-19.845c-0,-6.267 -2.002,-11.185 -6.006,-14.753c-4.004,-3.569 -9.836,-5.353 -17.495,-5.353l-30.029,-0Z" style="fill:#181716;"/><path d="M5745.68,1522.75l0,-46.48l160.85,0l-0,46.48l-53.53,-0l0,140.221l-54.574,-0l0,-140.221l-52.746,-0Z" style="fill:#181716;"/><path d="M5921.68,1662.97l-0,-186.701l145.443,0l0,44.391l-90.869,-0l-0,25.328l75.986,0l-0,40.996l-75.986,-0l-0,29.245l93.481,0l-0,46.741l-148.055,-0Z" style="fill:#181716;"/><path d="M6172.61,1667.41c-28.201,-0 -51.006,-9.139 -68.414,-27.418c-17.408,-18.278 -26.112,-41.518 -26.112,-69.719c0,-28.201 8.791,-51.484 26.374,-69.849c17.582,-18.366 40.299,-27.548 68.152,-27.548c20.715,-0 38.123,4.874 52.224,14.622c19.497,13.405 30.464,32.727 32.901,57.969l-54.574,-0c-0.697,-7.66 -3.961,-14.188 -9.792,-19.584c-5.832,-5.397 -13.013,-8.095 -21.543,-8.095c-12.533,0 -22.064,4.787 -28.592,14.362c-6.528,9.574 -9.792,22.282 -9.792,38.123c-0,15.493 3.481,28.114 10.445,37.863c6.963,9.748 16.45,14.622 28.462,14.622c9.226,0 16.711,-2.698 22.456,-8.094c5.745,-5.397 9.052,-12.447 9.923,-21.151l55.096,-0c-1.567,20.367 -9.662,37.601 -24.284,51.702c-15.319,14.796 -36.296,22.195 -62.93,22.195Z" style="fill:#181716;"/><path d="M6273.14,1662.97l-0,-186.701l54.574,0l-0,68.414l57.446,-0l0,-68.414l54.574,0l0,186.701l-54.574,-0l0,-73.114l-57.446,0l-0,73.114l-54.574,-0Z" style="fill:#181716;"/><path d="M6462.19,1662.97l0,-186.701l54.574,0l61.102,104.97l0.523,0l-0,-104.97l52.746,0l-0,186.701l-56.402,-0l-59.274,-105.754l-0.522,0l-0,105.754l-52.747,-0Z" style="fill:#181716;"/><rect x="6653.59" y="1476.27" width="54.574" height="186.701" style="fill:#181716;"/><path d="M6817.84,1667.41c-28.2,-0 -51.005,-9.139 -68.413,-27.418c-17.408,-18.278 -26.112,-41.518 -26.112,-69.719c0,-28.201 8.791,-51.484 26.373,-69.849c17.582,-18.366 40.3,-27.548 68.152,-27.548c20.716,-0 38.124,4.874 52.224,14.622c19.497,13.405 30.464,32.727 32.901,57.969l-54.574,-0c-0.696,-7.66 -3.96,-14.188 -9.792,-19.584c-5.831,-5.397 -13.012,-8.095 -21.542,-8.095c-12.534,0 -22.065,4.787 -28.593,14.362c-6.527,9.574 -9.791,22.282 -9.791,38.123c-0,15.493 3.481,28.114 10.444,37.863c6.963,9.748 16.451,14.622 28.462,14.622c9.227,0 16.712,-2.698 22.457,-8.094c5.744,-5.397 9.052,-12.447 9.922,-21.151l55.096,-0c-1.566,20.367 -9.661,37.601 -24.284,51.702c-15.319,14.796 -36.295,22.195 -62.93,22.195Z" style="fill:#181716;"/></g></svg>